<svg width="80" height="80" viewBox="0 0 80 80" fill="none" xmlns="http://www.w3.org/2000/svg">
    <g opacity="1">
        <path d="M39.2333 37.4707H33.1867V27.344H40.36C44.26 27.344 46.4733 29.084 46.4733 32.2307C46.4733 35.5907 43.8967 37.4707 39.2267 37.4707H39.2333ZM40.3133 41.4907H33.19V52.6507H40.6267C45.49 52.6507 48.0667 50.7007 48.0667 47.034C48.0667 43.3674 45.4167 41.4907 40.3133 41.4907ZM80 37.9707V42.0307C76.24 42.3907 73.9433 45.1774 72.58 49.5907C71.2233 53.9874 71.0367 59.3807 71.18 63.544C71.33 67.8774 67.9533 71.8774 63.39 71.8774H16.6167C12.05 71.8774 8.67333 67.8774 8.82667 63.544C8.97 59.3807 8.78333 53.9874 7.42667 49.5907C6.06 45.1774 3.76 42.3907 0 42.0307V37.9707C3.76 37.6107 6.06333 34.824 7.42333 30.4107C8.78333 26.014 8.97 20.6207 8.82333 16.4574C8.67333 12.124 12.05 8.12402 16.6167 8.12402H63.39C67.9567 8.12402 71.33 12.124 71.18 16.4574C71.0367 20.6207 71.2233 26.014 72.58 30.4107C73.9433 34.824 76.24 37.6107 80 37.9707ZM53.5767 47.3607C53.5767 42.8474 50.4 39.584 45.6833 39.0674V38.8774C49.15 38.314 51.87 35.094 51.87 31.5007C51.87 26.3774 47.8267 23.0407 41.6633 23.0407H27.7967V56.9474H41.7333C49.1267 56.9474 53.5767 53.3274 53.5767 47.3607Z" fill="#7952B3"/>
    </g>
</svg>
