<svg width="100" height="100" viewBox="0 0 100 100" fill="none" xmlns="http://www.w3.org/2000/svg">
<g clip-path="url(#clip0_177_1590)">
<path d="M100 14.2813V23.2168C100 31.0742 77.5893 37.5 50 37.5C22.4107 37.5 0 31.0742 0 23.2227V14.2813C0 6.42188 22.4107 0 50 0C77.5893 0 100 6.42188 100 14.2813ZM100 34.375V54.4727C100 62.3242 77.5893 68.75 50 68.75C22.4107 68.75 0 62.3242 0 54.4727V34.375C10.7411 40.8437 30.4018 43.8711 50 43.8711C69.5982 43.8711 89.2634 40.8398 100 34.375ZM100 65.625V85.7227C100 93.5742 77.5893 100 50 100C22.4107 100 0 93.5781 0 85.7168V65.625C10.7411 72.0957 30.4018 75.123 50 75.123C69.5982 75.123 89.2634 72.0898 100 65.625Z" fill="#C4C4C4"/>
</g>
<defs>
<clipPath id="clip0_177_1590">
<rect width="100" height="100" fill="white"/>
</clipPath>
</defs>
</svg>
