<svg width="100" height="100" viewBox="0 0 100 100" fill="none" xmlns="http://www.w3.org/2000/svg">
<g clip-path="url(#clip0_178_1614)">
<path d="M25.8804 26.4539C24.6065 25.3959 22.9655 24.8854 21.3163 25.0341C19.667 25.1828 18.1438 25.9785 17.0797 27.2473L1.45563 45.9961C0.515319 47.1184 0 48.5357 0 49.9998C0 51.4639 0.515319 52.8812 1.45563 54.0034L17.0797 72.7523C17.6038 73.3873 18.2483 73.9125 18.9761 74.2977C19.7039 74.6828 20.5007 74.9203 21.3206 74.9964C22.1404 75.0726 22.9673 74.986 23.7536 74.7415C24.5399 74.497 25.2701 74.0996 25.9023 73.5719C26.5344 73.0443 27.0561 72.3969 27.4372 71.667C27.8183 70.9371 28.0514 70.1391 28.1231 69.3188C28.1947 68.4985 28.1036 67.6721 27.8548 66.8872C27.606 66.1023 27.2045 65.3743 26.6734 64.745L14.3821 50L26.6738 35.2548C27.7352 33.9823 28.2479 32.3404 28.0992 30.6901C27.9504 29.0397 27.1523 27.516 25.8804 26.4539Z" fill="#14AD5E"/>
<path d="M57.4702 12.6241C55.8467 12.3167 54.1675 12.6585 52.7934 13.5761C51.4194 14.4937 50.4602 15.9138 50.122 17.5311L37.6228 80.0272C37.4606 80.832 37.4591 81.6609 37.6182 82.4663C37.7772 83.2717 38.0938 84.0377 38.5498 84.7205C39.0057 85.4032 39.592 85.9891 40.275 86.4446C40.958 86.9002 41.7242 87.2163 42.5297 87.3749C42.9353 87.4584 43.3485 87.4993 43.7626 87.497C45.206 87.4947 46.604 86.9925 47.7189 86.0758C48.8338 85.159 49.5967 83.8844 49.8779 82.4686L62.3771 19.9723C62.5393 19.1675 62.5409 18.3385 62.3819 17.533C62.2228 16.7276 61.9062 15.9615 61.4503 15.2787C60.9944 14.5959 60.408 14.0099 59.725 13.5544C59.042 13.0988 58.2757 12.7827 57.4702 12.6241Z" fill="#14AD5E"/>
<path d="M98.5445 45.9961L82.9204 27.2473C82.3963 26.6122 81.7518 26.087 81.024 25.7019C80.2962 25.3168 79.4995 25.0793 78.6796 25.0031C77.8597 24.9269 77.0328 25.0136 76.2465 25.258C75.4602 25.5025 74.73 25.9 74.0979 26.4276C73.4657 26.9552 72.9441 27.6026 72.5629 28.3325C72.1818 29.0624 71.9487 29.8604 71.877 30.6807C71.8054 31.501 71.8966 32.3274 72.1453 33.1123C72.3941 33.8973 72.7956 34.6253 73.3267 35.2545L85.618 50L73.3264 64.7452C72.7953 65.3744 72.3938 66.1024 72.145 66.8874C71.8963 67.6723 71.8051 68.4987 71.8767 69.319C71.9484 70.1393 72.1815 70.9373 72.5626 71.6672C72.9438 72.3971 73.4654 73.0445 74.0976 73.5721C74.7297 74.0997 75.4599 74.4972 76.2462 74.7417C77.0325 74.9861 77.8594 75.0728 78.6792 74.9966C79.4991 74.9204 80.2959 74.683 81.0237 74.2978C81.7515 73.9127 82.396 73.3875 82.9201 72.7525L98.5445 54.0034C99.4848 52.8812 100 51.4638 100 49.9998C100 48.5357 99.4848 47.1183 98.5445 45.9961Z" fill="#14AD5E"/>
</g>
<defs>
<clipPath id="clip0_178_1614">
<rect width="100" height="100" fill="white"/>
</clipPath>
</defs>
</svg>
