<svg width="80" height="80" viewBox="0 0 80 80" fill="none" xmlns="http://www.w3.org/2000/svg">
<g clip-path="url(#clip0_97_551)">
<path d="M68.1567 68.1741H56.31V49.6107C56.31 45.1841 56.22 39.4874 50.1367 39.4874C43.96 39.4874 43.0167 44.3041 43.0167 49.2841V68.1741H31.17V30.0007H42.55V35.2041H42.7033C44.2933 32.2041 48.16 29.0374 53.9367 29.0374C65.94 29.0374 68.16 36.9374 68.16 47.2207L68.1567 68.1741ZM17.79 24.7774C13.9767 24.7774 10.9133 21.6907 10.9133 17.8941C10.9133 14.1007 13.98 11.0174 17.79 11.0174C21.59 11.0174 24.67 14.1007 24.67 17.8941C24.67 21.6907 21.5867 24.7774 17.79 24.7774ZM23.73 68.1741H11.85V30.0007H23.73V68.1741ZM74.0833 0.000732422H5.90333C2.64 0.000732422 0 2.58073 0 5.76407V74.2374C0 77.4241 2.64 80.0007 5.90333 80.0007H74.0733C77.3333 80.0007 80 77.4241 80 74.2374V5.76407C80 2.58073 77.3333 0.000732422 74.0733 0.000732422H74.0833Z" fill="#0A66C2"/>
</g>
<defs>
<clipPath id="clip0_97_551">
<rect width="80" height="80" fill="white" transform="translate(0 0.000732422)"/>
</clipPath>
</defs>
</svg>
