<svg width="100" height="100" viewBox="0 0 100 100" fill="none" xmlns="http://www.w3.org/2000/svg">
<path d="M96.875 47.0703C80.6185 47.0703 64.3626 47.0762 48.1074 47.0879C47.3047 47.0879 47.0449 46.9297 47.0469 46.0625C47.0807 34.5039 47.0807 22.9453 47.0469 11.3867C47.0469 10.5508 47.3652 10.3809 48.0469 10.2812C58.3828 8.77343 68.7168 7.25585 79.0488 5.72851C84.5293 4.92382 95.3125 3.32031 95.9609 3.125C96.6797 2.92968 96.8984 3.26562 96.8984 4.04101C96.8698 18.3835 96.862 32.7266 96.875 47.0703Z" fill="#8BD0F7"/>
<path d="M95.7774 96.875C94.336 96.4844 93.2383 96.3574 91.9727 96.1641C85.0547 95.1172 78.125 94.0977 71.2051 93.082C64.7637 92.1367 58.3184 91.1992 51.8692 90.2695C50.5742 90.0742 49.2813 89.8692 47.9844 89.709C47.3047 89.627 47.041 89.3906 47.043 88.6289C47.0781 80.8828 47.0645 73.1367 47.0645 65.3867C47.0645 61.5449 47.0879 57.7012 47.0469 53.8633C47.0469 53.082 47.2637 52.9141 48.0117 52.916C64.2995 52.9369 80.586 52.9421 96.8711 52.9317C96.8711 67.2155 96.8802 81.4981 96.8984 95.7793C96.9063 96.7168 96.7168 97.084 95.7774 96.875Z" fill="#8BD0F7"/>
<path d="M3.125 16.8575C6.35156 16.4063 9.57031 15.9473 12.8027 15.4786C18.8327 14.6023 24.8607 13.7188 30.8867 12.8282C34.0508 12.3634 37.2168 11.9122 40.377 11.418C40.9941 11.3223 41.2266 11.3848 41.2266 12.0958C41.2044 23.5046 41.2044 34.9141 41.2266 46.3243C41.2266 47.1602 40.8066 47.0743 40.2773 47.0743C27.8945 47.0717 15.5104 47.0704 3.125 47.0704V16.8575Z" fill="#8BD0F7"/>
<path d="M3.125 52.9297C15.4805 52.9297 27.8353 52.9232 40.1895 52.9102C41.0234 52.9102 41.2344 53.1172 41.2305 53.9512C41.2018 65.1491 41.1953 76.347 41.2109 87.5449C41.2109 88.6895 41.2109 88.6738 40.1094 88.5117C33.2383 87.5078 26.3659 86.5078 19.4922 85.5117C14.3099 84.7539 9.12695 83.9844 3.94336 83.2031C3.67383 83.1621 3.39844 83.1562 3.125 83.1348V52.9297Z" fill="#8BD0F7"/>
<g opacity="0.15">
<path d="M38.0859 47.0703V11.9141L41.2109 11.3281V47.0703H38.0859Z" fill="#3F456B"/>
</g>
<g opacity="0.15">
<path d="M93.9453 47.0703V3.65234L97.0703 2.92969V47.0703H93.9453Z" fill="#3F456B"/>
</g>
<g opacity="0.15">
<path d="M3.125 47.0703V16.9082L6.25 16.4062V47.0703H3.125Z" fill="white"/>
</g>
<g opacity="0.15">
<path d="M47.0703 47.0703V10.7617L50.1953 10.1562V47.0703H47.0703Z" fill="white"/>
</g>
<g opacity="0.15">
<path d="M3.1582 16.9727L41.1621 11.4375L41.2109 14.6484L3.125 20.1172L3.1582 16.9727Z" fill="white"/>
</g>
<g opacity="0.15">
<path d="M47.248 10.5059L96.7578 3.29492L96.6816 6.52539L47.0703 13.6719L47.248 10.5059Z" fill="white"/>
</g>
<g opacity="0.15">
<path d="M41.2109 43.9453H3.125V47.0703H41.2109V43.9453Z" fill="#3F456B"/>
</g>
<g opacity="0.15">
<path d="M96.875 43.9453H47.0703V47.0703H96.875V43.9453Z" fill="#3F456B"/>
</g>
<g opacity="0.15">
<path d="M38.0859 52.9297V88.0859L41.2109 88.6719V52.9297H38.0859Z" fill="#3F456B"/>
</g>
<g opacity="0.15">
<path d="M93.9453 52.9297V96.3477L97.0703 97.0703V52.9297H93.9453Z" fill="#3F456B"/>
</g>
<g opacity="0.15">
<path d="M3.125 52.9297V83.0918L6.25 83.5938V52.9297H3.125Z" fill="white"/>
</g>
<g opacity="0.15">
<path d="M47.0703 52.9297V89.2383L50.1953 89.8438V52.9297H47.0703Z" fill="white"/>
</g>
<g opacity="0.15">
<path d="M3.1582 83.0273L41.1621 88.5625L41.2109 85.3516L3.125 79.8828L3.1582 83.0273Z" fill="#3F456B"/>
</g>
<g opacity="0.15">
<path d="M47.248 89.4941L96.7578 96.7051L96.6816 93.4766L47.0703 86.3281L47.248 89.4941Z" fill="#3F456B"/>
</g>
<g opacity="0.15">
<path d="M41.2109 52.9297H3.125V56.0547H41.2109V52.9297Z" fill="white"/>
</g>
<g opacity="0.15">
<path d="M96.875 52.9297H47.0703V56.0547H96.875V52.9297Z" fill="white"/>
</g>
<path d="M48.0996 48.0644C47.5566 48.0644 46.998 48.0039 46.5664 47.5722C46.1348 47.1406 46.0723 46.5332 46.0723 46.0605C46.1074 33.875 46.1055 22.5351 46.0723 11.3887C46.0723 9.77147 47.1172 9.43553 47.9082 9.31443C55.4316 8.21678 62.9551 7.11326 70.4785 6.00389L78.9063 4.76365C88.3789 3.37108 95.1172 2.33592 95.6914 2.18553C96.3242 2.01561 96.8398 2.08592 97.2402 2.39256C97.8125 2.83201 97.877 3.5449 97.877 4.04295C97.8516 15.875 97.8516 27.9062 97.8516 39.543V47.0703C97.8516 47.3293 97.7487 47.5777 97.5655 47.7608C97.3824 47.944 97.134 48.0469 96.875 48.0469H88.7031C75.3984 48.0469 61.6406 48.0469 48.1113 48.0644H48.0996ZM48.0254 46.1113H48.1074C61.6406 46.0937 75.3906 46.0937 88.7031 46.0937H95.8984V39.543C95.8984 27.9375 95.8984 15.9355 95.9199 4.13084C93.9863 4.50584 84.7871 5.87303 79.1875 6.69529L70.7559 7.93553C63.2324 9.0423 55.709 10.1491 48.1855 11.2558L48.0215 11.2832C48.0215 11.3125 48.0215 11.3476 48.0215 11.3906C48.0586 22.539 48.0605 33.8847 48.0215 46.0742L48.0254 46.1113Z" fill="#3F456B"/>
<path d="M96.2051 97.9082C95.9906 97.906 95.777 97.8798 95.5684 97.8301L95.5215 97.8184C94.5112 97.5567 93.4849 97.361 92.4492 97.2324L91.8262 97.1387C85.4473 96.1621 78.957 95.2148 72.6856 94.293L71.0723 94.0566C66.6986 93.416 62.3249 92.7786 57.9512 92.1445L51.7422 91.2441C51.3399 91.1856 50.9382 91.125 50.5371 91.0625C49.6641 90.9316 48.7617 90.7949 47.8789 90.6875C46.6797 90.541 46.0762 89.8496 46.0801 88.6328C46.1094 82.5781 46.1055 76.4375 46.1035 70.4902C46.1035 68.7975 46.1035 67.0996 46.1035 65.3965C46.1035 64.3952 46.1035 63.3932 46.1035 62.3906C46.1035 59.5996 46.1035 56.7148 46.0821 53.8789C46.0821 53.4297 46.125 52.8574 46.5508 52.4277C46.9766 51.998 47.5274 51.9512 48.0254 51.9453C61.668 51.9629 75.541 51.9629 88.9551 51.9609H96.875C97.134 51.9609 97.3824 52.0638 97.5656 52.247C97.7487 52.4301 97.8516 52.6785 97.8516 52.9375V61.0703C97.8516 72.4492 97.8516 84.2129 97.8809 95.7832C97.8809 96.1992 97.8809 97.0684 97.25 97.5781C96.9504 97.8058 96.5811 97.9225 96.2051 97.9082ZM48.0274 88.7285L48.1074 88.7402C49.0196 88.8516 49.9356 88.9902 50.8223 89.1309L52.0156 89.3086L58.2227 90.2109C62.5977 90.8464 66.9727 91.4837 71.3477 92.1231L72.961 92.3594C79.2422 93.2793 85.7363 94.2324 92.1192 95.207L92.7324 95.2969C93.8082 95.4318 94.8747 95.6327 95.9258 95.8984C95.9258 95.8613 95.9258 95.8203 95.9258 95.7734C95.8985 84.207 95.8985 72.4414 95.8985 61.0625V53.9063H88.9492C75.5371 53.9063 61.6699 53.9063 48.0293 53.8906C48.0586 56.7246 48.0547 59.6016 48.0508 62.3848C48.0508 63.3861 48.0508 64.3874 48.0508 65.3887C48.0508 67.0879 48.0508 68.7858 48.0508 70.4824C48.0508 76.4316 48.0508 82.582 48.0274 88.6328C48.0254 88.6719 48.0274 88.7031 48.0274 88.7285Z" fill="#3F456B"/>
<path d="M40.5352 48.0469H40.2813C29.8646 48.0469 19.448 48.0469 9.0313 48.0469H3.12505C2.86605 48.0469 2.61765 47.944 2.43451 47.7609C2.25137 47.5777 2.14848 47.3294 2.14848 47.0704V16.8575C2.14615 16.6205 2.23007 16.3908 2.38458 16.2111C2.5391 16.0314 2.75368 15.9141 2.98833 15.8809L5.99028 15.4551C8.17778 15.1563 10.4395 14.8438 12.6622 14.5118C17.2559 13.8438 21.849 13.1732 26.4415 12.5L30.7383 11.8692L32.9708 11.543C35.3516 11.1895 37.8145 10.8301 40.2344 10.4532C40.5723 10.4004 41.2012 10.3028 41.7032 10.7344C42.2051 11.1661 42.211 11.8438 42.211 12.1016C42.1875 25.2168 42.1895 36.0918 42.211 46.3243C42.211 46.5371 42.211 47.1797 41.752 47.6368C41.5878 47.7844 41.3952 47.8969 41.1859 47.9675C40.9767 48.038 40.7553 48.065 40.5352 48.0469ZM14.9844 46.0938C23.4076 46.0938 31.8314 46.0938 40.2559 46.0938C40.2286 36.0118 40.2266 25.2969 40.2559 12.4239C37.9239 12.7852 35.5684 13.1309 33.2657 13.4649L31.0352 13.7911L26.7383 14.4239C22.1355 15.0944 17.5372 15.7683 12.9434 16.4454C10.7168 16.7696 8.45122 17.0899 6.26372 17.3985L4.10161 17.7051V46.0938H14.9844Z" fill="#3F456B"/>
<path d="M40.8086 89.5605C40.5414 89.5522 40.2751 89.5248 40.0117 89.4785H39.9688L30.2031 88.0566C26.5872 87.5358 22.972 87.0091 19.3574 86.4766C16.2962 86.0286 13.2363 85.5775 10.1777 85.123L3.80079 84.1797C3.65821 84.1602 3.49805 84.1504 3.32618 84.1387L3.04688 84.1211C2.80165 84.1014 2.57289 83.9899 2.40632 83.8088C2.23975 83.6278 2.14765 83.3905 2.14844 83.1445V52.9297C2.14844 52.6707 2.25133 52.4223 2.43447 52.2392C2.61761 52.056 2.866 51.9531 3.12501 51.9531H10.2148C20.0391 51.9531 30.1973 51.9531 40.1875 51.9316C40.6973 51.9316 41.2774 51.9883 41.7149 52.4258C42.1524 52.8633 42.209 53.4434 42.207 53.9531C42.1875 62.8906 42.1875 71.9805 42.1875 80.7695V87.5391C42.1875 88.2969 42.1875 88.8398 41.7129 89.252C41.4617 89.4662 41.1383 89.5765 40.8086 89.5605ZM4.10157 82.2461L10.457 83.1855C13.5156 83.6387 16.5755 84.0898 19.6367 84.5391C23.2526 85.069 26.8678 85.5951 30.4824 86.1172L40.2344 87.5371V80.7695C40.2344 71.9805 40.2344 62.8887 40.2539 53.9492V53.8867H40.1914C30.1992 53.9062 20.0391 53.9062 10.2148 53.9062H4.10157V82.2461Z" fill="#3F456B"/>
</svg>
