<svg width="100" height="100" viewBox="0 0 100 100" fill="none" xmlns="http://www.w3.org/2000/svg">
<g clip-path="url(#clip0_178_1609)">
<path d="M0.951422 34.8714C0.951422 34.8714 -1.48422 33.0968 1.43855 30.7272L8.24817 24.5723C8.24817 24.5723 10.1967 22.5001 12.2568 24.3055L75.0963 72.3958V95.4558C75.0963 95.4558 75.0658 99.077 70.4683 98.677L0.951422 34.8714Z" fill="#259CF0"/>
<path d="M17.1481 49.7363L0.951139 64.6205C0.951139 64.6205 -0.713215 65.8722 0.951139 68.1084L8.47117 75.0222C8.47117 75.0222 10.2573 76.9609 12.8959 74.7555L30.0671 61.5947L17.1481 49.7363Z" fill="#259CF0"/>
<path d="M45.5835 49.8589L75.2881 26.9319L75.0952 3.99449C75.0952 3.99449 73.8264 -1.01152 69.5948 1.59407L30.0664 37.9595L45.5835 49.8589Z" fill="#259CF0"/>
<path d="M70.4672 98.7083C72.1922 100.493 74.2831 99.9083 74.2831 99.9083L97.4326 88.3783C100.396 86.3367 99.9801 83.8029 99.9801 83.8029V14.9501C99.9801 11.924 96.9151 10.8776 96.9151 10.8776L76.8506 1.10157C72.4664 -1.63737 69.5947 1.59395 69.5947 1.59395C69.5947 1.59395 73.2885 -1.09368 75.0951 3.99438V95.0358C75.0951 95.6617 74.9631 96.2771 74.6993 96.8308C74.1714 97.9079 73.0247 98.9133 70.2743 98.4929L70.4672 98.7083Z" fill="#259CF0"/>
</g>
<defs>
<clipPath id="clip0_178_1609">
<rect width="100" height="100" fill="white"/>
</clipPath>
</defs>
</svg>
