<svg width="100" height="100" viewBox="0 0 100 100" fill="none" xmlns="http://www.w3.org/2000/svg">
<g clip-path="url(#clip0_175_1423)">
<path d="M58.2626 46.1583H67.0917C67.2966 46.1584 67.4931 46.0773 67.6383 45.9328C67.7835 45.7884 67.8656 45.5923 67.8667 45.3875V37.525C67.8667 37.3195 67.7851 37.1223 67.6397 36.977C67.4944 36.8317 67.2973 36.75 67.0917 36.75H58.2626C58.0581 36.75 57.8621 36.8312 57.7175 36.9758C57.5729 37.1203 57.4917 37.3164 57.4917 37.5208V45.3875C57.4917 45.8125 57.8376 46.1583 58.2626 46.1583ZM45.9542 23.5333H54.7792C54.9848 23.5333 55.1819 23.4517 55.3272 23.3064C55.4726 23.161 55.5542 22.9639 55.5542 22.7583V14.8917C55.5531 14.6869 55.471 14.4908 55.3258 14.3464C55.1806 14.2019 54.9841 14.1208 54.7792 14.1208H45.9542C45.7498 14.1208 45.5537 14.2021 45.4092 14.3466C45.2646 14.4912 45.1834 14.6872 45.1834 14.8917V22.7583C45.1834 23.1833 45.5251 23.5333 45.9542 23.5333ZM45.9542 34.8458H54.7792C54.9844 34.8448 55.1809 34.7628 55.326 34.6176C55.4711 34.4725 55.5531 34.2761 55.5542 34.0708V26.2083C55.5531 26.0035 55.471 25.8075 55.3258 25.663C55.1806 25.5186 54.9841 25.4375 54.7792 25.4375H45.9542C45.7498 25.4375 45.5537 25.5187 45.4092 25.6633C45.2646 25.8078 45.1834 26.0039 45.1834 26.2083V34.0708C45.1834 34.4958 45.5251 34.8417 45.9542 34.8458ZM33.7459 34.8458H42.5792C42.7833 34.8437 42.9783 34.761 43.1219 34.6159C43.2654 34.4708 43.3459 34.275 43.3459 34.0708V26.2083C43.3459 26.0039 43.2647 25.8078 43.1201 25.6633C42.9756 25.5187 42.7795 25.4375 42.5751 25.4375H33.7501C33.5456 25.4375 33.3496 25.5187 33.205 25.6633C33.0604 25.8078 32.9792 26.0039 32.9792 26.2083V34.0708C32.9792 34.4958 33.3251 34.8417 33.7501 34.8458M21.4001 34.8458H30.2292C30.4341 34.8447 30.6301 34.7626 30.7746 34.6174C30.919 34.4722 31.0001 34.2757 31.0001 34.0708V26.2083C31.0001 26.0039 30.9189 25.8078 30.7743 25.6633C30.6297 25.5187 30.4337 25.4375 30.2292 25.4375H21.4001C21.1952 25.4375 20.9988 25.5186 20.8535 25.663C20.7083 25.8075 20.6262 26.0035 20.6251 26.2083V34.0708C20.6251 34.4958 20.9751 34.8417 21.4001 34.8458ZM45.9542 46.1583H54.7792C54.9841 46.1584 55.1806 46.0773 55.3258 45.9328C55.471 45.7884 55.5531 45.5923 55.5542 45.3875V37.525C55.5542 37.3195 55.4726 37.1223 55.3272 36.977C55.1819 36.8317 54.9848 36.75 54.7792 36.75H45.9542C45.7498 36.75 45.5537 36.8312 45.4092 36.9758C45.2646 37.1203 45.1834 37.3164 45.1834 37.5208V45.3875C45.1834 45.8125 45.5251 46.1583 45.9542 46.1583ZM33.7459 46.1583H42.5792C42.783 46.1572 42.9779 46.0755 43.1216 45.9311C43.2653 45.7867 43.3459 45.5912 43.3459 45.3875V37.525C43.3465 37.4238 43.3271 37.3234 43.2888 37.2297C43.2506 37.136 43.1943 37.0507 43.1231 36.9787C43.0519 36.9068 42.9672 36.8495 42.8739 36.8103C42.7806 36.771 42.6805 36.7506 42.5792 36.75H33.7459C33.5422 36.7511 33.3472 36.8328 33.2035 36.9773C33.0599 37.1217 32.9792 37.3171 32.9792 37.5208V45.3875C32.9792 45.8125 33.3251 46.1583 33.7501 46.1583M21.4001 46.1583H30.2292C30.4337 46.1583 30.6297 46.0771 30.7743 45.9326C30.9189 45.788 31.0001 45.592 31.0001 45.3875V37.525C31.0006 37.4238 30.9812 37.3234 30.943 37.2297C30.9048 37.136 30.8484 37.0507 30.7772 36.9787C30.7061 36.9068 30.6214 36.8495 30.5281 36.8103C30.4348 36.771 30.3346 36.7506 30.2334 36.75H21.4001C21.1945 36.75 20.9974 36.8317 20.8521 36.977C20.7067 37.1223 20.6251 37.3195 20.6251 37.525V45.3875C20.6251 45.8125 20.9751 46.1583 21.4001 46.1583ZM9.2334 46.1583H18.0667C18.2705 46.1572 18.4654 46.0755 18.6091 45.9311C18.7528 45.7867 18.8334 45.5912 18.8334 45.3875V37.525C18.834 37.4238 18.8146 37.3234 18.7763 37.2297C18.7381 37.136 18.6818 37.0507 18.6106 36.9787C18.5394 36.9068 18.4547 36.8495 18.3614 36.8103C18.2681 36.771 18.168 36.7506 18.0667 36.75H9.2334C9.02969 36.7511 8.83469 36.8328 8.69103 36.9773C8.54737 37.1217 8.46673 37.3171 8.46674 37.5208V45.3875C8.46674 45.8125 8.80424 46.1583 9.2334 46.1583ZM99.0126 41.2084C98.7417 40.9959 96.2126 39.0833 90.8709 39.0833C89.4626 39.0875 88.0542 39.2083 86.6626 39.4458C85.6292 32.3625 79.7751 28.9042 79.5126 28.7542L78.0792 27.925L77.1376 29.2875C75.9542 31.1125 75.0959 33.1292 74.5876 35.2458C73.6292 39.2875 74.2126 43.0875 76.2667 46.3333C73.7876 47.7167 69.8084 48.0542 69.0001 48.0833H3.12924C2.30221 48.0844 1.50926 48.4129 0.92368 48.9969C0.338106 49.5809 0.00754057 50.373 0.00423761 51.2C-0.072922 56.9702 0.904215 62.7059 2.88757 68.125C5.1584 74.075 8.5334 78.4584 12.9292 81.1417C17.8459 84.1542 25.8459 85.8792 34.9084 85.8792C39.0042 85.8917 43.0876 85.5208 47.1167 84.7708C52.7119 83.743 58.0959 81.7869 63.0459 78.9833C67.1292 76.6208 70.7959 73.6167 73.9209 70.0833C79.1376 64.175 82.2459 57.5958 84.5584 51.75H85.4792C91.1959 51.75 94.7084 49.4625 96.6459 47.5458C97.9334 46.325 98.9376 44.8375 99.5917 43.1875L100 41.9875L99.0126 41.2084Z" fill="black"/>
</g>
<defs>
<clipPath id="clip0_175_1423">
<rect width="100" height="100" fill="white"/>
</clipPath>
</defs>
</svg>
