<svg width="80" height="80" viewBox="0 0 80 80" fill="none" xmlns="http://www.w3.org/2000/svg">
<g clip-path="url(#clip0_100_888)">
<path d="M80 18.1966V64.5457C80 67.5581 77.56 69.9974 74.5467 69.9974H61.8167V39.1002L40 55.4619L18.1833 39.1002V70.0007H5.45333C4.73691 70.0007 4.02751 69.8596 3.36566 69.5854C2.70382 69.3113 2.1025 68.9094 1.59607 68.4028C1.08963 67.8962 0.688014 67.2948 0.414154 66.633C0.140295 65.9712 -0.000436892 65.2619 1.01884e-06 64.5457V18.1966C1.01884e-06 11.4554 7.69667 7.60657 13.09 11.652L18.1833 15.4742L40 31.8291L61.8167 15.4675L66.91 11.652C72.3 7.6099 80 11.4554 80 18.1966Z" fill="black"/>
</g>
<defs>
<clipPath id="clip0_100_888">
<rect width="80" height="80" fill="white" transform="translate(0 0.000732422)"/>
</clipPath>
</defs>
</svg>
