<svg width="100" height="100" viewBox="0 0 100 100" fill="none" xmlns="http://www.w3.org/2000/svg">
<g clip-path="url(#clip0_175_1420)">
<path d="M48.2125 47.9708H0C0.00163345 50.8298 0.567138 53.6605 1.66414 56.3007C2.76114 58.9408 4.3681 61.3387 6.39302 63.3571C8.41794 65.3754 10.8211 66.9746 13.4648 68.063C16.1085 69.1514 18.941 69.7077 21.8 69.7H30.675V78.2708C30.675 84.0323 32.9632 89.558 37.0364 93.6327C41.1096 97.7075 46.6343 99.9978 52.3958 100V52.1583C52.3958 51.0477 51.9547 49.9826 51.1693 49.1973C50.384 48.412 49.3189 47.9708 48.2083 47.9708H48.2125ZM72.0583 23.9875H23.9C23.9011 29.7497 26.1909 35.2755 30.2658 39.3496C34.3407 43.4238 39.867 45.7125 45.6292 45.7125H54.5V54.2875C54.5044 60.0487 56.7953 65.5726 60.8695 69.646C64.9436 73.7194 70.468 76.0092 76.2292 76.0125V28.1583C76.2292 27.0522 75.7897 25.9913 75.0076 25.2091C74.2254 24.4269 73.1645 23.9875 72.0583 23.9875ZM95.8875 0H47.7292C47.7292 5.76293 50.0185 11.2898 54.0935 15.3648C58.1685 19.4398 63.6954 21.7292 69.4583 21.7292H78.3292V30.3C78.3336 36.05 80.6168 41.5638 84.6787 45.6335C88.7407 49.7032 94.2501 51.9971 100 52.0125V4.1875C100.004 3.08848 99.575 2.03209 98.8049 1.24797C98.0349 0.463847 96.9864 0.0153619 95.8875 0Z" fill="black"/>
</g>
<defs>
<clipPath id="clip0_175_1420">
<rect width="100" height="100" fill="white"/>
</clipPath>
</defs>
</svg>
