<svg width="80" height="80" viewBox="0 0 80 80" fill="none" xmlns="http://www.w3.org/2000/svg">
<path d="M39.9951 80.0008C38.9393 80.0008 37.8868 79.7208 36.9626 79.1775L27.3061 73.3875C25.8655 72.5708 26.5693 72.2808 27.0429 72.1108C28.967 71.4342 29.3551 71.2775 31.4107 70.0975C31.6245 69.9742 31.9074 70.0208 32.1278 70.1542L39.5478 74.6175C39.8175 74.7675 40.1957 74.7675 40.4424 74.6175L69.3692 57.6975C69.6389 57.5408 69.8099 57.2275 69.8099 56.9042V23.0708C69.8099 22.7408 69.6356 22.4308 69.3593 22.2642L40.4457 5.3575C40.1792 5.20083 39.824 5.20083 39.5543 5.3575L10.6472 22.2675C10.3677 22.4308 10.1901 22.7508 10.1901 23.0708V56.9042C10.1901 57.2275 10.3677 57.5342 10.6472 57.6875L18.5705 62.3275C22.8692 64.5075 25.5037 61.9408 25.5037 59.3608V25.9575C25.5037 25.4842 25.8786 25.1142 26.3457 25.1142H30.0129C30.4701 25.1142 30.8516 25.4875 30.8516 25.9575V59.3608C30.8516 65.1775 27.7271 68.5108 22.287 68.5108C20.6162 68.5108 19.2973 68.5108 15.6235 66.6742L8.03247 62.2508C6.15773 61.1542 5 59.1008 5 56.9042V23.0708C5 20.8742 6.16102 18.8208 8.03247 17.7275L36.9593 0.7875C38.7913 -0.2625 41.2219 -0.2625 43.0374 0.7875L71.9609 17.7275C73.8357 18.8242 75 20.8742 75 23.0708V56.9042C75 59.1008 73.8357 61.1475 71.9609 62.2508L43.0374 79.1775C42.1165 79.7208 41.0673 80.0008 39.9951 80.0008ZM63.3503 46.6442C63.3503 40.3108 59.1272 38.6242 50.237 37.4342C41.2548 36.2308 40.3404 35.6075 40.3404 33.4775C40.3404 31.7175 41.1133 29.3675 47.767 29.3675C53.7102 29.3675 55.9007 30.6642 56.8019 34.7242C56.8808 35.1075 57.2262 35.3875 57.6143 35.3875H61.3671C61.6006 35.3875 61.8209 35.2842 61.9788 35.1175C62.1367 34.9375 62.2222 34.7075 62.1992 34.4642C61.617 27.4708 57.0321 24.2108 47.767 24.2108C39.5182 24.2108 34.5978 27.7375 34.5978 33.6542C34.5978 40.0708 39.4918 41.8442 47.4085 42.6375C56.8808 43.5775 57.6143 44.9808 57.6143 46.8675C57.6143 50.1442 55.0193 51.5408 48.9247 51.5408C41.2712 51.5408 39.5872 49.5942 39.0215 45.7342C38.9557 45.3208 38.6071 45.0175 38.1894 45.0175H34.4498C33.986 45.0175 33.6144 45.3908 33.6144 45.8608C33.6144 50.8008 36.2653 56.6875 48.9247 56.6875C58.0945 56.6908 63.3503 53.0342 63.3503 46.6442Z" fill="black"/>
</svg>
