<svg width="100" height="100" viewBox="0 0 100 100" fill="none" xmlns="http://www.w3.org/2000/svg">
<g clip-path="url(#clip0_175_1435)">
<path d="M56.3618 0.411719C28.9785 -3.10078 3.92429 16.2492 0.411793 43.6367C-3.10071 71.02 16.2451 96.07 43.6326 99.5867C71.0201 103.099 96.0785 83.7492 99.5826 56.3617C103.099 28.9784 83.7535 3.92839 56.3618 0.411719ZM66.6576 31.5992C65.7298 31.6114 64.8433 31.9851 64.1868 32.6409L45.6326 51.195L44.3535 49.9159L41.6743 47.2367C59.9618 29.0034 63.2576 28.8284 66.6576 31.5992ZM46.3951 51.8534L64.8951 33.3534C65.1376 33.0991 65.4294 32.8969 65.7527 32.7592C66.076 32.6216 66.424 32.5513 66.7754 32.5528C67.1267 32.5542 67.4741 32.6273 67.7963 32.7676C68.1184 32.9079 68.4086 33.1125 68.649 33.3687C68.8894 33.625 69.0749 33.9277 69.1944 34.2581C69.3138 34.5886 69.3645 34.9399 69.3435 35.2907C69.3225 35.6414 69.2301 35.9842 69.072 36.298C68.914 36.6119 68.6936 36.8902 68.4243 37.1159L48.8451 54.3034L46.3951 51.8534ZM47.7701 54.745L43.1868 55.7367C43.1321 55.749 43.0747 55.7426 43.0241 55.7184C42.9735 55.6942 42.9324 55.6537 42.9076 55.6034C42.8798 55.5553 42.8687 55.4992 42.8763 55.4442C42.8838 55.3891 42.9095 55.3381 42.9493 55.2992L45.6368 52.6117L47.7701 54.745ZM36.091 52.8325L40.9743 47.9492L44.6368 51.6075L36.391 53.3825C36.3222 53.4004 36.2495 53.3939 36.185 53.3643C36.1204 53.3347 36.0681 53.2838 36.0368 53.22C35.998 53.1597 35.9821 53.0874 35.992 53.0163C36.002 52.9451 36.0371 52.88 36.091 52.8325ZM20.8993 78.0742C20.8576 78.0706 20.8171 78.0587 20.7801 78.0393C20.7431 78.0199 20.7102 77.9934 20.6835 77.9612C20.6568 77.9291 20.6367 77.8919 20.6244 77.852C20.6121 77.812 20.6078 77.77 20.6118 77.7284C20.6197 77.6559 20.652 77.5883 20.7035 77.5367H20.7118L24.6535 73.5951L29.7451 78.6867L20.8993 78.0742ZM31.0035 72.8409C30.8146 72.9385 30.6639 73.0966 30.5755 73.29C30.4871 73.4834 30.4661 73.7009 30.516 73.9076L31.3618 77.5117C31.3891 77.6228 31.3791 77.7397 31.3334 77.8445C31.2876 77.9493 31.2086 78.0362 31.1086 78.0916C31.0086 78.1471 30.8931 78.1681 30.78 78.1514C30.6668 78.1347 30.5624 78.0812 30.4826 77.9992H30.4701L26.5785 74.1075L25.3535 72.8784L41.0285 57.22L48.6118 55.5825L52.2535 59.2242C47.0243 63.8159 39.8743 68.3951 31.0035 72.8409ZM52.9993 58.5575H52.991L49.4951 55.0617L69.0743 37.8742C69.2554 37.7133 69.4214 37.5362 69.5701 37.3451C68.9535 42.9492 61.116 50.8659 52.9993 58.5575ZM68.2368 31.6409L68.2243 31.6326C66.8467 30.2484 66.0555 28.3866 66.0151 26.4341C65.9748 24.4817 66.6883 22.5888 68.0076 21.1488C69.3268 19.7089 71.1501 18.8328 73.0986 18.7025C75.0472 18.5722 76.9709 19.1978 78.4701 20.4492L71.7618 27.1701C71.7153 27.2161 71.6784 27.271 71.6532 27.3314C71.6281 27.3919 71.6151 27.4567 71.6151 27.5221C71.6151 27.5876 71.6281 27.6524 71.6532 27.7128C71.6784 27.7733 71.7153 27.8281 71.7618 27.8742L76.9576 33.0701C75.5374 33.775 73.9317 34.0163 72.3671 33.7599C70.8024 33.5035 69.3577 32.7623 68.2368 31.6409ZM78.9785 31.6409C78.6338 31.9812 78.2555 32.2855 77.8493 32.5492L72.816 27.5201L79.2035 21.1326C81.9576 24.1326 81.8576 28.7659 78.9785 31.6409ZM78.5618 25.2076C78.4616 25.2802 78.3865 25.3822 78.347 25.4994C78.3074 25.6166 78.3053 25.7432 78.341 25.8617C78.4893 26.1622 78.5474 26.4992 78.5082 26.8319C78.469 27.1647 78.3342 27.479 78.1201 27.7367C78.0724 27.7969 78.037 27.8658 78.016 27.9397C77.995 28.0135 77.9887 28.0908 77.9976 28.167C78.0065 28.2433 78.0304 28.317 78.0679 28.3841C78.1053 28.4511 78.1557 28.51 78.216 28.5576C78.316 28.636 78.4388 28.6799 78.566 28.6826C78.6503 28.6818 78.7334 28.6628 78.8096 28.6268C78.8859 28.5909 78.9534 28.5388 79.0076 28.4742C79.3655 28.0442 79.5904 27.5193 79.6548 26.9636C79.7192 26.4079 79.6202 25.8455 79.3701 25.3451C79.3265 25.2824 79.2708 25.2291 79.2064 25.1882C79.142 25.1474 79.07 25.1197 78.9948 25.1069C78.9195 25.0941 78.8425 25.0964 78.7682 25.1137C78.6938 25.131 78.6237 25.1629 78.5618 25.2076Z" fill="black"/>
</g>
<defs>
<clipPath id="clip0_175_1435">
<rect width="100" height="100" fill="white"/>
</clipPath>
</defs>
</svg>
