<svg width="80" height="80" viewBox="0 0 80 80" fill="none" xmlns="http://www.w3.org/2000/svg">
<path fill-rule="evenodd" clip-rule="evenodd" d="M40 5.00073C20.6719 5.00073 5 21.0632 5 40.8914C5 56.7507 15.0312 70.1882 28.9375 74.9382C30.6875 75.2664 31.3281 74.157 31.3281 73.2039C31.3281 72.3445 31.2969 70.0945 31.2812 67.0945C21.5469 69.2664 19.4844 62.282 19.4844 62.282C17.8906 58.1414 15.5938 57.032 15.5938 57.032C12.4219 54.7976 15.8281 54.8445 15.8281 54.8445C19.3438 55.0945 21.1875 58.5476 21.1875 58.5476C24.3125 64.032 29.375 62.4539 31.375 61.532C31.6875 59.2195 32.5938 57.6257 33.5938 56.7351C25.8281 55.8289 17.6562 52.7507 17.6562 39.0007C17.6562 35.0789 19.0156 31.8757 21.25 29.3757C20.8906 28.4695 19.6875 24.8132 21.5938 19.8757C21.5938 19.8757 24.5312 18.907 31.2188 23.5476C34.0156 22.7507 37 22.3601 39.9844 22.3445C42.9531 22.3601 45.9531 22.7507 48.75 23.5476C55.4375 18.907 58.3594 19.8757 58.3594 19.8757C60.2656 24.8132 59.0625 28.4695 58.7031 29.3757C60.9375 31.8914 62.2969 35.0945 62.2969 39.0007C62.2969 52.782 54.1094 55.8132 46.3125 56.7039C47.5625 57.8132 48.6875 60.0007 48.6875 63.3445C48.6875 68.1414 48.6406 72.0164 48.6406 73.1882C48.6406 74.1414 49.2656 75.2664 51.0469 74.907C64.9844 70.1726 75 56.7351 75 40.8914C75 21.0632 59.3281 5.00073 40 5.00073Z" fill="black"/>
</svg>
