<svg width="80" height="80" viewBox="0 0 80 80" fill="none" xmlns="http://www.w3.org/2000/svg">
<g clip-path="url(#clip0_96_684)">
<path d="M67.43 52.8003C67.7674 52.6038 68.0479 52.3211 68.2433 51.9803C68.4391 51.6389 68.5426 51.2514 68.5433 50.8567L68.5833 37.8386C68.5841 37.4439 68.6876 37.0564 68.8833 36.715C69.0797 36.3738 69.3614 36.091 69.7 35.895L76.6667 31.8358C77.0046 31.6401 77.3874 31.5377 77.7767 31.5388C78.1666 31.5398 78.5494 31.6445 78.8867 31.8425C79.224 32.0391 79.5045 32.3218 79.7 32.6625C79.8946 33.0042 79.9969 33.3917 79.9967 33.7861V57.4534C79.9964 57.8492 79.893 58.2379 79.6969 58.5803C79.5009 58.9227 79.2191 59.2068 78.88 59.4037L52.57 74.7028C52.2341 74.8975 51.8538 75 51.4667 75C51.0796 75 50.6992 74.8975 50.3633 74.7028L29.7167 62.751C29.3765 62.5545 29.0936 62.2705 28.8967 61.9277C28.6999 61.5843 28.5964 61.1943 28.5967 60.7973V48.8625C28.5967 48.849 28.61 48.8422 28.6233 48.849C28.6367 48.8557 28.65 48.849 28.65 48.8321V48.8186C28.65 48.8085 28.6567 48.8017 28.6633 48.795L45.67 38.9083C45.6833 38.8982 45.6767 38.8745 45.66 38.8745C45.6574 38.8745 45.6549 38.8739 45.6526 38.8728C45.6502 38.8716 45.6482 38.8699 45.6467 38.8678C45.6452 38.8659 45.6441 38.8637 45.6436 38.8614C45.643 38.8591 45.6429 38.8567 45.6433 38.8543L45.6767 27.1556C45.6782 26.7594 45.5764 26.3697 45.3815 26.0261C45.1866 25.6824 44.9055 25.397 44.5667 25.1985C44.2287 25.001 43.8453 24.897 43.455 24.897C43.0647 24.897 42.6813 25.001 42.3433 25.1985L29.7067 32.5747C29.3695 32.771 28.9873 32.8743 28.5983 32.8743C28.2094 32.8743 27.8272 32.771 27.49 32.5747L14.81 25.185C14.4723 24.9888 14.0896 24.8859 13.7003 24.8864C13.3109 24.887 12.9285 24.991 12.5913 25.1881C12.2542 25.3853 11.9741 25.6686 11.779 26.0097C11.584 26.3509 11.4809 26.7379 11.48 27.132V48.2787C11.4801 48.6729 11.378 49.0602 11.1838 49.4019C10.9896 49.7436 10.7101 50.0277 10.3733 50.2257C10.0371 50.4232 9.65547 50.528 9.26667 50.5294C8.87737 50.5305 8.49461 50.4281 8.15667 50.2324L1.12 46.1596C0.779798 45.9631 0.49692 45.6791 0.300005 45.3363C0.102704 44.9919 -0.000816678 44.6007 4.85184e-06 44.2026L0.0633382 7.24392C0.064547 6.85026 0.167731 6.46382 0.362591 6.12315C0.557451 5.78248 0.837171 5.4995 1.17383 5.30247C1.51049 5.10544 1.89231 5.00123 2.28119 5.00027C2.67007 4.9993 3.05239 5.1016 3.39 5.29695L27.49 19.3104C27.8272 19.5067 28.2094 19.61 28.5983 19.61C28.9873 19.61 29.3695 19.5067 29.7067 19.3104L53.8 5.29695C54.1379 5.10116 54.5207 4.99875 54.91 5.00001C55.2999 5.0008 55.6828 5.10555 56.02 5.3037C56.3578 5.50117 56.6383 5.78511 56.8333 6.12703C57.0266 6.46912 57.1278 6.85658 57.1267 7.25067V44.2194C57.1267 44.6142 57.0267 45.0023 56.83 45.3464C56.634 45.6888 56.3523 45.9728 56.0133 46.1698L43.3967 53.5257C43.0573 53.7237 42.7755 54.0089 42.58 54.3524C42.3849 54.6951 42.2825 55.0839 42.2833 55.4794C42.2837 55.8753 42.3872 56.264 42.5833 56.6065C42.781 56.9498 43.0651 57.2339 43.4067 57.4298L50.3667 61.4418C50.7022 61.6342 51.0811 61.7353 51.4667 61.7354C51.8551 61.7349 52.2367 61.6313 52.5733 61.4351L67.43 52.7969V52.8003ZM68.89 19.6377C68.8896 20.0347 68.9931 20.4247 69.19 20.7681C69.3886 21.1118 69.6739 21.396 70.0167 21.5914C70.3582 21.7868 70.7447 21.8871 71.1369 21.8824C71.5292 21.8777 71.9132 21.768 72.25 21.5644L78.92 17.5153C79.2489 17.3156 79.5211 17.0331 79.71 16.6953C79.8999 16.3569 79.9998 15.9744 80 15.5852V7.3384C79.9992 6.9411 79.8946 6.5511 79.6967 6.20801C79.4983 5.86489 79.2136 5.5811 78.8717 5.38551C78.5297 5.18992 78.1427 5.08951 77.75 5.09449C77.3578 5.09894 76.9736 5.20838 76.6367 5.41168L69.97 9.46083C69.6399 9.66003 69.3666 9.94256 69.1767 10.2808C68.9881 10.6196 68.8894 11.002 68.89 11.3909V19.6377Z" fill="#007FFF"/>
</g>
<defs>
<clipPath id="clip0_96_684">
<rect width="80" height="80" fill="white"/>
</clipPath>
</defs>
</svg>
