<svg width="80" height="80" viewBox="0 0 80 80" fill="none" xmlns="http://www.w3.org/2000/svg">
<g clip-path="url(#clip0_96_693)">
<path d="M72.8424 4.67413C71.7316 7.34177 70.2939 9.86082 68.5624 12.1733C64.8546 8.33481 60.4155 5.27973 55.5078 3.18882C50.6001 1.09791 45.3234 0.0136325 39.9898 0.000127727C34.6562 -0.0133771 29.3741 1.04416 24.4559 3.1102C19.5376 5.17623 15.0832 8.20879 11.3561 12.0285C7.62892 15.8482 4.70475 20.3775 2.75654 25.3484C0.808315 30.3194 -0.124388 35.631 0.0135959 40.9691C0.15158 46.3073 1.35745 51.5635 3.55987 56.4269C5.7623 61.2902 8.91655 65.662 12.836 69.2836L14.3177 70.6022C19.9403 75.3497 26.7656 78.4465 34.0378 79.5497C41.3099 80.6529 48.7452 79.7195 55.5201 76.8527C62.2951 73.986 68.1453 69.2978 72.423 63.3074C76.7006 57.3169 79.2388 50.258 79.7564 42.9124C80.9087 32.8585 77.8634 20.0026 72.8424 4.67413ZM18.5984 69.6133C18.1752 70.134 17.6073 70.5174 16.9665 70.7151C16.3257 70.9128 15.6407 70.9158 14.9982 70.7238C14.3557 70.5319 13.7844 70.1535 13.3566 69.6366C12.9288 69.1197 12.6636 68.4874 12.5946 67.8197C12.5256 67.152 12.6559 66.4787 12.9689 65.8851C13.2819 65.2914 13.7637 64.804 14.3534 64.4844C14.943 64.1648 15.6141 64.0274 16.2817 64.0895C16.9494 64.1516 17.5836 64.4104 18.1044 64.8334C18.7871 65.4122 19.2197 66.2329 19.3118 67.1239C19.4039 68.0148 19.1482 68.9068 18.5984 69.6133ZM72.5954 57.6639C62.8004 70.767 41.7284 66.3168 28.3114 66.9762C28.3114 66.9762 25.9244 67.1411 23.537 67.4705C23.537 67.4705 24.4427 67.0587 25.595 66.6465C35.061 63.3503 39.5057 62.6908 45.2677 59.724C56.0507 54.2024 66.8337 42.0884 68.9737 29.5619C64.858 41.5938 52.3467 51.9775 40.9874 56.1804C33.1677 59.0649 19.0924 61.8668 19.0924 61.8668L18.516 61.5371C8.96771 56.8396 8.63871 36.0723 26.0887 29.3971C33.744 26.4302 40.9874 28.0788 49.301 26.1008C58.1084 24.0404 68.3154 17.4476 72.431 8.79468C77.0404 22.7218 82.6377 44.3134 72.5954 57.6639Z" fill="#6DB33F"/>
</g>
<defs>
<clipPath id="clip0_96_693">
<rect width="80" height="80" fill="white"/>
</clipPath>
</defs>
</svg>
