<svg width="80" height="80" viewBox="0 0 80 80" fill="none" xmlns="http://www.w3.org/2000/svg">
<g clip-path="url(#clip0_96_609)">
<path d="M52.9302 29.9374H37.5314V0.000732422H52.9302C61.2404 0.000732422 68 6.71406 68 14.9674C68 23.2207 61.2404 29.9374 52.9302 29.9374ZM42.4686 25.0341H52.9302C58.5184 25.0341 63.0629 20.5174 63.0629 14.9707C63.0629 9.42407 58.5151 4.9074 52.9302 4.9074H42.4686V25.0341ZM42.4686 29.9374H27.0732C18.763 29.9374 12.0034 23.2241 12.0034 14.9707C12.0034 6.7174 18.763 0.000732422 27.0732 0.000732422H42.4719V29.9374H42.4686ZM27.0732 4.90407C21.4849 4.90407 16.9405 9.42073 16.9405 14.9674C16.9405 20.5141 21.4849 25.0341 27.0732 25.0341H37.5348V4.90407H27.0732ZM42.4686 54.9674H27.0732C18.763 54.9674 12.0034 48.2541 12.0034 40.0007C12.0034 31.7474 18.763 25.0341 27.0732 25.0341H42.4719V54.9674H42.4686ZM27.0732 29.9374C21.4849 29.9374 16.9405 34.4541 16.9405 40.0007C16.9405 45.5474 21.4883 50.0641 27.0732 50.0641H37.5348V29.9374H27.0732ZM27.1537 80.0007C18.7999 80.0007 12 73.2874 12 65.0341C12 56.7807 18.7596 50.0674 27.0698 50.0674H42.4686V64.8707C42.4686 73.2141 35.5982 80.0007 27.1537 80.0007ZM27.0732 54.9674C24.3869 54.9709 21.8117 56.0323 19.9122 57.9188C18.0127 59.8053 16.944 62.3629 16.9405 65.0307C16.9405 70.5807 21.5218 75.0941 27.1571 75.0941C32.8796 75.0941 37.5381 70.5074 37.5381 64.8674V54.9674H27.0732ZM52.9302 54.9674H52.6013C44.291 54.9674 37.5314 48.2541 37.5314 40.0007C37.5314 31.7474 44.291 25.0341 52.6013 25.0341H52.9302C61.2404 25.0341 68 31.7474 68 40.0007C68 48.2541 61.2404 54.9674 52.9302 54.9674ZM52.6046 29.9374C47.0164 29.9374 42.4719 34.4541 42.4719 40.0007C42.4719 45.5474 47.0197 50.0641 52.6046 50.0641H52.9335C58.5218 50.0641 63.0662 45.5474 63.0662 40.0007C63.0662 34.4541 58.5151 29.9374 52.9302 29.9374H52.6046Z" fill="black"/>
</g>
<defs>
<clipPath id="clip0_96_609">
<rect width="80" height="80" fill="white" transform="translate(0 0.000732422)"/>
</clipPath>
</defs>
</svg>
