<svg width="100" height="100" viewBox="0 0 100 100" fill="none" xmlns="http://www.w3.org/2000/svg">
<path d="M65.0942 59.9837C66.8143 58.808 69.2003 57.7904 69.2003 57.7904C69.2003 57.7904 62.4097 59.0189 55.654 59.5804C47.3894 60.2646 38.5104 60.4048 34.0534 59.8083C23.5073 58.4046 39.8438 54.5263 39.8438 54.5263C39.8438 54.5263 33.5093 54.1056 25.7007 57.8603C16.4886 62.3175 48.5122 64.3529 65.0942 59.9837Z" fill="black"/>
<path d="M50.1093 54.351C46.7753 46.8584 35.5274 40.2779 50.1093 28.767C68.3059 14.4135 58.9706 5.07812 58.9706 5.07812C62.7432 19.9057 45.705 24.3979 39.5456 33.6102C35.3516 39.9096 41.5987 46.6654 50.1093 54.351Z" fill="black"/>
<path d="M70.2183 23.4326C70.2359 23.4326 39.4756 31.1184 54.1627 48.0338C58.4968 53.0174 53.022 57.5096 53.022 57.5096C53.022 57.5096 64.0244 51.8244 58.9707 44.7176C54.2504 38.0846 50.6355 34.7857 70.2183 23.4326Z" fill="black"/>
<path d="M69.1483 70.8983C69.0606 71.1089 68.7974 71.3372 68.7974 71.3546C91.3103 65.4411 83.028 50.4905 72.2714 54.2812C71.3237 54.6146 70.8329 55.3866 70.8329 55.3866C70.8329 55.3866 71.4292 55.1407 72.7632 54.8601C78.2024 53.7196 86.0112 62.1423 69.1483 70.8983Z" fill="black"/>
<path d="M77.4303 81.8304C77.4303 81.8304 79.9746 83.9187 74.6402 85.5505C64.4805 88.6212 32.3865 89.5511 23.4725 85.6736C20.2613 84.287 26.2799 82.3392 28.1752 81.9359C30.1402 81.5146 31.2809 81.5845 31.2809 81.5845C27.7188 79.0753 8.24122 86.5156 21.3842 88.639C57.2158 94.4644 86.7307 86.0241 77.4303 81.8304Z" fill="black"/>
<path d="M38.1946 74.5657C24.3849 78.4262 46.5999 86.3928 64.182 78.8647C61.3046 77.742 59.2339 76.4434 59.2339 76.4434C51.3902 77.935 47.7581 78.0401 40.6337 77.2331C34.7554 76.5663 38.1946 74.5657 38.1946 74.5657Z" fill="black"/>
<path d="M69.7445 91.6217C55.935 94.2186 38.8967 93.9207 28.8066 92.2531C28.8066 92.2359 30.8773 93.9555 41.5109 94.6398C57.6895 95.6754 82.5365 94.0605 83.1156 86.4102C83.1156 86.4102 81.9928 89.3057 69.7445 91.6217Z" fill="black"/>
<path d="M62.0942 67.0204C51.7059 69.0209 45.6874 68.9682 38.0895 68.1786C32.211 67.5643 36.054 64.7219 36.054 64.7219C20.8231 69.7754 44.5118 75.4961 65.7963 69.2666C63.5331 68.4768 62.0942 67.0204 62.0942 67.0204Z" fill="black"/>
</svg>
