<svg width="80" height="80" viewBox="0 0 80 80" fill="none" xmlns="http://www.w3.org/2000/svg">
<path d="M57.3394 31.85C53.1188 13.25 43.1416 7.13667 42.0698 4.8C41.1348 3.48667 40.3001 1.62 39.6155 0C39.4953 1.65 39.4319 2.28333 37.8692 3.94667C35.455 5.83333 23.0504 16.22 22.042 37.3467C21.1003 57.0533 36.2998 68.7967 38.3634 70.2933L38.5971 70.46C39.0268 73.6325 39.3942 76.8131 39.699 80H41.3051C41.6858 76.56 42.2534 73.1467 43.008 69.7667C44.4004 68.78 45.0249 68.2233 45.8463 67.4567C49.7362 63.8643 52.8276 59.497 54.9206 54.6371C57.0137 49.7772 58.0618 44.533 57.9972 39.2433C58.0306 36.53 57.6533 33.7033 57.3394 31.85ZM39.522 59.1667C39.522 59.1667 39.522 31.53 40.4403 31.5333C41.1515 31.5333 42.0764 67.1833 42.0764 67.1833C40.8043 67.0333 39.522 61.3167 39.522 59.1667Z" fill="black"/>
</svg>
