<svg width="80" height="80" viewBox="0 0 80 80" fill="none" xmlns="http://www.w3.org/2000/svg">
<g clip-path="url(#clip0_96_626)">
<path d="M40.5047 80.0007C60.7036 80.0007 59.443 71.2607 59.443 71.2607L59.4182 62.2057H40.1441V59.4892H67.076C67.076 59.4892 80 60.9529 80 40.6174C80 20.282 68.7195 21.0039 68.7195 21.0039H61.9865V30.4385C61.9865 30.4385 62.3495 41.6941 50.8851 41.6941H31.7702C31.7702 41.6941 21.0292 41.5204 21.0292 52.0516V69.4646C21.0292 69.4646 19.3982 80.0007 40.5047 80.0007ZM51.1337 73.9128C50.678 73.9134 50.2267 73.8243 49.8056 73.6507C49.3845 73.477 49.0019 73.2221 48.6797 72.9006C48.3575 72.5791 48.102 72.1973 47.928 71.7771C47.7539 71.357 47.6646 70.9066 47.6653 70.452C47.6653 68.5417 49.2167 66.9937 51.1337 66.9937C53.0507 66.9937 54.6021 68.5393 54.6021 70.452C54.6021 72.3672 53.0507 73.9128 51.1337 73.9128Z" fill="url(#paint0_linear_96_626)"/>
<path d="M40.1648 0.000732422C19.6235 0.000732422 20.9054 8.8885 20.9054 8.8885L20.9307 18.0966H40.5314V20.8591H13.1405C13.1405 20.8591 0 19.3707 0 40.0524C0 60.7291 11.4717 59.9975 11.4717 59.9975H18.3188V50.4009C18.3188 50.4009 17.9496 38.955 29.6084 38.955H49.0473C49.0473 38.955 59.9703 39.1316 59.9703 28.4224V10.715C59.9703 10.715 61.629 0.000732422 40.1648 0.000732422ZM29.3556 6.19164C31.305 6.19164 32.8828 7.76586 32.8828 9.71092C32.8828 11.656 31.305 13.2302 29.3556 13.2302C28.8922 13.2309 28.4332 13.1403 28.005 12.9637C27.5767 12.787 27.1876 12.5278 26.8599 12.2009C26.5323 11.874 26.2725 11.4858 26.0955 11.0585C25.9184 10.6312 25.8277 10.1733 25.8283 9.71092C25.8283 7.76586 27.4061 6.19164 29.3556 6.19164Z" fill="url(#paint1_linear_96_626)"/>
</g>
<defs>
<linearGradient id="paint0_linear_96_626" x1="32.2848" y1="32.9864" x2="74.4481" y2="73.47" gradientUnits="userSpaceOnUse">
<stop/>
<stop offset="1"/>
</linearGradient>
<linearGradient id="paint1_linear_96_626" x1="7.77505" y1="7.01911" x2="47.6926" y2="47.1607" gradientUnits="userSpaceOnUse">
<stop/>
<stop offset="1"/>
</linearGradient>
<clipPath id="clip0_96_626">
<rect width="80" height="80" fill="white" transform="translate(0 0.000732422)"/>
</clipPath>
</defs>
</svg>
