<svg width="80" height="80" viewBox="0 0 80 80" fill="none" xmlns="http://www.w3.org/2000/svg">
<path d="M47.4333 40.0092C47.4333 42.0061 46.6485 43.9214 45.2515 45.3337C43.8544 46.7461 41.9595 47.5401 39.9833 47.5409C38.0066 47.5409 36.1108 46.7474 34.713 45.3349C33.3153 43.9224 32.53 42.0067 32.53 40.0092C32.53 38.0122 33.3148 36.097 34.7119 34.6846C36.1089 33.2722 38.0038 32.4783 39.98 32.4774C41.9567 32.4774 43.8525 33.2709 45.2503 34.6834C46.6481 36.0959 47.4333 38.0116 47.4333 40.0092ZM56.26 4.00073C51.7733 4.00073 45.9033 7.23442 39.9667 12.8327C34.0333 7.26473 28.16 4.0681 23.6767 4.0681C22.31 4.0681 21.0667 4.38136 19.99 5.00452C15.4067 7.67568 14.38 15.999 16.7467 26.4445C6.6 29.6108 0 34.6736 0 40.0092C0 45.3649 6.63333 50.4412 16.81 53.5839C14.4633 64.0698 15.51 72.4066 20.1033 75.0744C21.17 75.7043 22.4033 76.0007 23.7767 76.0007C28.26 76.0007 34.1333 72.7671 40.07 67.162C46.0033 72.7334 51.8767 75.93 56.36 75.93C57.7267 75.93 58.97 75.6268 60.0467 75.0037C64.6267 72.3359 65.6567 64.0125 63.29 53.5637C73.4 50.4243 80 45.3515 80 40.0092C80 34.6534 73.3667 29.5772 63.19 26.4277C65.5367 15.9519 64.49 7.60831 59.8967 4.93715C58.8367 4.31736 57.6067 4.0041 56.26 4.00073ZM56.2433 7.67231V7.69252C56.9933 7.69252 57.5967 7.84073 58.1033 8.12031C60.3233 9.40705 61.2867 14.3014 60.5367 20.5969C60.3567 22.1464 60.0633 23.7801 59.7033 25.4475C56.5033 24.6525 53.0167 24.0428 49.3467 23.6487C47.1467 20.6003 44.8633 17.8315 42.5633 15.4062C47.87 10.4209 52.8533 7.68579 56.2467 7.67568L56.2433 7.67231ZM23.6767 7.73968C27.05 7.73968 32.0567 10.4614 37.3767 15.4197C35.09 17.8449 32.81 20.5969 30.6433 23.6454C26.9533 24.0395 23.4633 24.6492 20.2667 25.4576C19.8933 23.807 19.6167 22.2104 19.42 20.6744C18.6533 14.3822 19.6 9.49126 21.8 8.18768C22.4333 7.88452 23.1333 7.75652 23.6767 7.73968ZM39.95 18.0134C41.4667 19.5898 42.9833 21.3548 44.4833 23.2816C43.0167 23.2142 41.5167 23.167 40 23.167C38.4667 23.167 36.95 23.2007 35.4667 23.2816C36.9333 21.3548 38.45 19.5932 39.95 18.0134ZM40 26.8588C42.4667 26.8588 44.9233 26.9734 47.34 27.1721C48.6933 29.1325 50.0133 31.2243 51.2833 33.4374C52.5233 35.5932 53.65 37.7826 54.6767 39.9923C53.65 42.1986 52.5233 44.4049 51.3 46.5607C50.0333 48.7839 48.7233 50.8993 47.3667 52.8597C44.94 53.0719 42.48 53.1898 40 53.1898C37.5333 53.1898 35.0767 53.0719 32.66 52.8765C31.3067 50.9161 29.9867 48.8209 28.7167 46.6113C27.4767 44.4555 26.35 42.266 25.3233 40.0563C26.3333 37.8433 27.4767 35.6336 28.7 33.4744C29.9667 31.2513 31.2767 29.1426 32.6333 27.1822C35.06 26.9666 37.52 26.8521 40 26.8521V26.8588ZM27.8833 27.7144C27.0833 28.9843 26.2833 30.2845 25.5367 31.6218C24.7867 32.9355 24.0867 34.2559 23.42 35.5763C22.5367 33.3666 21.7867 31.1637 21.1667 29.018C23.3 28.5127 25.55 28.0614 27.8833 27.7144ZM52.0833 27.7144C54.4 28.0614 56.6333 28.4892 58.77 29.018C58.17 31.1468 57.42 33.3363 56.57 35.5292C55.9033 34.2155 55.2033 32.8917 54.4367 31.5746C53.6867 30.2542 52.8867 28.9675 52.0867 27.7144H52.0833ZM62.2933 29.9881C63.9067 30.4934 65.44 31.0559 66.8767 31.6656C72.65 34.1582 76.3833 37.4188 76.3833 40.0058C76.3667 42.5927 72.6333 45.8668 66.86 48.3426C65.46 48.9489 63.9267 49.4946 62.3433 50.0033C61.41 46.7763 60.19 43.4146 58.6767 39.9654C60.1767 36.5397 61.3767 33.1948 62.2933 29.9814V29.9881ZM17.6433 30.0016C18.57 33.2353 19.7933 36.5936 21.31 40.0395C19.81 43.4652 18.6033 46.81 17.69 50.0235C16.0767 49.5182 14.5433 48.9523 13.1233 48.3393C7.35 45.8567 3.61667 42.5927 3.61667 40.0058C3.61667 37.4188 7.35 34.138 13.1233 31.6656C14.5233 31.0593 16.0567 30.5136 17.6433 30.0016ZM56.57 44.4184C57.4533 46.6315 58.2033 48.8378 58.8233 50.9801C56.69 51.5089 54.4367 51.9569 52.1033 52.2938C52.9033 51.0306 53.7033 49.727 54.4533 48.3932C55.2033 47.0795 55.9 45.7388 56.57 44.4184ZM23.42 44.4858C24.0867 45.8062 24.7867 47.1233 25.5533 48.4437C26.32 49.7574 27.1033 51.0441 27.9033 52.2938C25.5867 51.9502 23.3533 51.5191 21.2167 50.9936C21.8167 48.8715 22.57 46.6753 23.4167 44.4824L23.42 44.4858ZM59.7333 54.5473C60.1067 56.2079 60.4 57.8079 60.58 59.3405C61.3467 65.6327 60.4 70.5237 58.2 71.8306C57.71 72.1338 57.0733 72.2618 56.3233 72.2618C52.95 72.2618 47.9433 69.5435 42.6233 64.5818C44.91 62.1565 47.19 59.4079 49.3567 56.3628C53.0467 55.9654 56.5367 55.3557 59.7333 54.5473ZM20.3 54.5809C23.5 55.3692 26.9867 55.9788 30.6567 56.3729C32.8567 59.4214 35.14 62.1902 37.44 64.6121C32.1233 69.6075 27.1333 72.3426 23.74 72.3426C23.0067 72.3258 22.3867 72.1742 21.8967 71.898C19.6767 70.618 18.7133 65.7203 19.4633 59.4247C19.6433 57.8753 19.94 56.2449 20.3 54.5809ZM35.5 56.7367C36.9667 56.8041 38.4667 56.8513 39.9833 56.8513C41.5167 56.8513 43.0333 56.8176 44.5167 56.7367C43.05 58.6635 41.5333 60.4252 40.0333 62.0083C38.5167 60.4252 37 58.6635 35.5 56.7367Z" fill="black"/>
</svg>
