<svg width="100" height="100" viewBox="0 0 100 100" fill="none" xmlns="http://www.w3.org/2000/svg">
<path d="M54.1667 4.16777C53.0125 4.16777 52.0833 5.09693 52.0833 6.2511V8.33443C52.0833 9.4886 53.0125 10.4178 54.1667 10.4178H75.0081L75.0407 23.9269C75.0449 25.6463 76.4381 27.0389 78.1576 27.0437L91.6667 27.0793V86.4584C91.6667 88.2436 90.327 89.5834 88.5417 89.5834H40.625C38.8397 89.5834 37.5 88.2436 37.5 86.4584V83.3334C37.5 82.1792 36.5709 81.2501 35.4167 81.2501H33.3333C32.1791 81.2501 31.25 82.1792 31.25 83.3334V86.4584C31.25 91.5982 35.4853 95.8334 40.625 95.8334H88.5417C93.6814 95.8334 97.9167 91.5982 97.9167 86.4584V22.9452C97.9165 22.1165 97.5872 21.3218 97.0011 20.7358L81.3475 5.08228C80.7616 4.49603 79.9669 4.16696 79.1382 4.16675L54.1667 4.16777ZM31.25 47.9178C31.25 49.0719 32.1791 50.0011 33.3333 50.0011H35.4167C36.5709 50.0011 37.5 49.0719 37.5 47.9178V27.0844C37.5 25.9303 36.5709 25.0011 35.4167 25.0011H33.3333C32.1791 25.0011 31.25 25.9303 31.25 27.0844V47.9178Z" fill="black"/>
<path d="M40.6248 4.16772C35.4852 4.16772 31.2498 8.40293 31.2498 13.5427V18.7511C31.2498 19.9052 32.179 20.8344 33.3332 20.8344H35.4165C36.5707 20.8344 37.4998 19.9052 37.4998 18.7511V13.5427C37.4998 11.7575 38.8395 10.4177 40.6248 10.4177H45.8332C46.9874 10.4177 47.9165 9.48856 47.9165 8.33439V6.25106C47.9165 5.09689 46.9874 4.16772 45.8332 4.16772H40.6248ZM8.33317 54.1677C6.02482 54.1677 4.1665 56.0261 4.1665 58.3344V72.9177C4.1665 75.2261 6.02482 77.0844 8.33317 77.0844H60.4165C62.7249 77.0844 64.5832 75.2261 64.5832 72.9177V58.3344C64.5832 56.0261 62.7249 54.1677 60.4165 54.1677H8.33317ZM21.9806 58.1431C22.8758 58.1431 23.6923 58.3223 24.5278 58.6803C24.7467 58.2036 24.9835 58.1431 25.5207 58.1431C26.1573 58.1431 26.3177 58.345 26.3385 59.1807L26.3752 61.0484V61.1501C26.3752 61.8861 26.1383 62.1836 25.3823 62.1836C24.5866 62.1836 24.5061 61.7456 24.2674 61.2681C23.8696 60.4922 23.172 60.0555 22.237 60.0555C21.0235 60.0555 20.2879 60.6922 20.2879 61.4878C20.2879 62.5024 21.4037 62.6 23.4129 63.0178C25.82 63.515 26.953 64.5923 26.953 66.5619C26.953 68.9489 25.2811 70.2809 22.2573 70.2809C21.2627 70.2809 20.3503 70.1789 19.3358 69.8008C19.1169 70.1789 18.8579 70.2809 18.4202 70.2809C17.6245 70.2809 17.3262 70.0427 17.3053 69.2271L17.2443 66.9362V66.8385C17.2443 66.0031 17.5233 65.6829 18.3389 65.6829C19.0948 65.6829 19.1934 66.2399 19.5514 66.9361C20.0687 67.9507 20.9444 68.4295 22.2573 68.4295C23.431 68.4295 24.1494 67.9325 24.1494 67.0175C24.1494 65.7642 23.0336 65.7634 20.8454 65.1865C18.6571 64.6096 17.5047 63.8722 17.5047 61.9028C17.5047 59.6945 19.3348 58.1431 21.9806 58.1431ZM34.0859 58.1431C37.2887 58.1431 39.5588 60.6272 39.5588 64.1287C39.5588 67.6497 37.2508 70.1589 34.1673 70.1589C34.0677 70.1589 33.8463 70.1598 33.5081 70.1381L32.7716 70.8908C33.3088 70.7117 33.8459 70.6142 34.383 70.6142C35.7158 70.6142 36.4749 71.0699 37.0319 71.0699C37.6287 71.0699 38.1233 70.6548 38.5212 70.6548C38.9986 70.6548 39.3594 71.0703 39.3594 71.6273C39.3594 72.3434 38.4018 72.962 37.0889 72.962C35.8356 72.962 34.9224 72.3435 33.9476 72.3435C32.7341 72.3435 31.9 73.1003 31.3231 73.1003C30.7661 73.1003 30.3262 72.6817 30.3262 72.1644C30.3262 71.7665 30.6232 71.3503 31.1603 70.7932L32.1328 69.8004C30.0062 69.0235 28.5968 66.8321 28.5968 64.1282C28.5968 60.6267 30.8434 58.1431 34.0859 58.1431ZM41.6787 58.4605H45.8332C46.6289 58.4605 47.0295 58.7589 47.0295 59.5347C47.0295 60.3304 46.6289 60.609 45.8332 60.609H44.9787V67.8477H49.3936V66.1184C49.3936 65.2828 49.6757 64.8855 50.4515 64.8855C51.2472 64.8855 51.5054 65.3028 51.5054 66.1184V69.101C51.5054 69.7966 51.3037 69.9758 50.4881 69.9758H41.6787C40.883 69.9758 40.5028 69.6974 40.5028 68.9016C40.5028 68.106 40.883 67.8477 41.6787 67.8477H42.5332V60.609H41.6787C40.883 60.609 40.5028 60.3304 40.5028 59.5347C40.5028 58.7589 40.883 58.4605 41.6787 58.4605ZM34.0859 60.3892C32.4547 60.3892 31.4004 61.7434 31.4004 64.21C31.4004 66.6769 32.4945 68.0471 34.0859 68.0471C35.6973 68.0471 36.7715 66.6967 36.7715 64.21C36.7715 61.7234 35.6973 60.3892 34.0859 60.3892Z" fill="black"/>
</svg>
